<svg width="88" height="80" viewBox="0 0 88 80" fill="none" xmlns="http://www.w3.org/2000/svg">
<path d="M59.176 63L44.616 21.28H52.904L64.328 55.832H62.704L74.128 21.28H82.416L67.912 63H59.176Z" fill="white"/>
<path d="M57 42L48 47.1962L48 36.8038L57 42Z" fill="#110F5E"/>
<mask id="path-3-outside-1_285_30" maskUnits="userSpaceOnUse" x="9" y="18" width="45" height="48" fill="black">
<rect fill="white" x="9" y="18" width="45" height="48"/>
<path d="M31.968 63.672C29.0187 63.672 26.312 63.1493 23.848 62.104C21.384 61.0213 19.2373 59.528 17.408 57.624C15.616 55.6827 14.216 53.4053 13.208 50.792C12.2 48.1787 11.696 45.304 11.696 42.168C11.696 39.032 12.2 36.1573 13.208 33.544C14.216 30.9307 15.616 28.6533 17.408 26.712C19.2373 24.7707 21.384 23.2773 23.848 22.232C26.312 21.1493 29.0187 20.608 31.968 20.608C34.8053 20.608 37.344 21.112 39.584 22.12C41.8613 23.128 43.7653 24.4347 45.296 26.04C46.864 27.608 47.984 29.2693 48.656 31.024L44.624 32.984C43.5787 30.4453 41.9733 28.448 39.808 26.992C37.6427 25.536 35.0293 24.808 31.968 24.808C28.9067 24.808 26.1813 25.536 23.792 26.992C21.4027 28.448 19.536 30.4827 18.192 33.096C16.848 35.672 16.176 38.696 16.176 42.168C16.176 45.6027 16.848 48.6267 18.192 51.24C19.536 53.8533 21.4027 55.888 23.792 57.344C26.1813 58.7627 28.9067 59.472 31.968 59.472C34.6933 59.472 37.1387 58.8747 39.304 57.68C41.5067 56.4853 43.2427 54.8613 44.512 52.808C45.7813 50.7173 46.416 48.328 46.416 45.64V43.344L48.432 45.36H31.968V41.44H50.896V44.912C50.896 47.6373 50.4107 50.1573 49.44 52.472C48.4693 54.7493 47.1253 56.728 45.408 58.408C43.6907 60.088 41.6747 61.3947 39.36 62.328C37.0827 63.224 34.6187 63.672 31.968 63.672Z"/>
</mask>
<path d="M31.968 63.672C29.0187 63.672 26.312 63.1493 23.848 62.104C21.384 61.0213 19.2373 59.528 17.408 57.624C15.616 55.6827 14.216 53.4053 13.208 50.792C12.2 48.1787 11.696 45.304 11.696 42.168C11.696 39.032 12.2 36.1573 13.208 33.544C14.216 30.9307 15.616 28.6533 17.408 26.712C19.2373 24.7707 21.384 23.2773 23.848 22.232C26.312 21.1493 29.0187 20.608 31.968 20.608C34.8053 20.608 37.344 21.112 39.584 22.12C41.8613 23.128 43.7653 24.4347 45.296 26.04C46.864 27.608 47.984 29.2693 48.656 31.024L44.624 32.984C43.5787 30.4453 41.9733 28.448 39.808 26.992C37.6427 25.536 35.0293 24.808 31.968 24.808C28.9067 24.808 26.1813 25.536 23.792 26.992C21.4027 28.448 19.536 30.4827 18.192 33.096C16.848 35.672 16.176 38.696 16.176 42.168C16.176 45.6027 16.848 48.6267 18.192 51.24C19.536 53.8533 21.4027 55.888 23.792 57.344C26.1813 58.7627 28.9067 59.472 31.968 59.472C34.6933 59.472 37.1387 58.8747 39.304 57.68C41.5067 56.4853 43.2427 54.8613 44.512 52.808C45.7813 50.7173 46.416 48.328 46.416 45.64V43.344L48.432 45.36H31.968V41.44H50.896V44.912C50.896 47.6373 50.4107 50.1573 49.44 52.472C48.4693 54.7493 47.1253 56.728 45.408 58.408C43.6907 60.088 41.6747 61.3947 39.36 62.328C37.0827 63.224 34.6187 63.672 31.968 63.672Z" fill="white"/>
<path d="M23.848 62.104L23.0435 63.935L23.0551 63.9402L23.0669 63.9452L23.848 62.104ZM17.408 57.624L15.9384 58.9806L15.9519 58.9952L15.9658 59.0097L17.408 57.624ZM13.208 33.544L11.342 32.8243L13.208 33.544ZM17.408 26.712L15.9524 25.3404L15.9454 25.3479L15.9384 25.3554L17.408 26.712ZM23.848 22.232L24.6291 24.0732L24.6409 24.0682L24.6525 24.063L23.848 22.232ZM39.584 22.12L38.7633 23.9439L38.7745 23.9489L39.584 22.12ZM45.296 26.04L43.8485 27.4201L43.865 27.4374L43.8818 27.4542L45.296 26.04ZM48.656 31.024L49.5304 32.8227L51.1795 32.0211L50.5237 30.3087L48.656 31.024ZM44.624 32.984L42.7746 33.7455L43.5848 35.713L45.4984 34.7827L44.624 32.984ZM39.808 26.992L38.692 28.6517L38.692 28.6517L39.808 26.992ZM23.792 26.992L24.8327 28.6999L23.792 26.992ZM18.192 33.096L19.9652 34.0211L19.9706 34.0107L18.192 33.096ZM18.192 51.24L19.9706 50.3253L18.192 51.24ZM23.792 57.344L22.7513 59.0519L22.7611 59.0578L22.7709 59.0637L23.792 57.344ZM39.304 57.68L38.3505 55.9219L38.3441 55.9254L38.3378 55.9288L39.304 57.68ZM44.512 52.808L46.2132 53.8596L46.2174 53.8528L46.2216 53.846L44.512 52.808ZM46.416 43.344L47.8302 41.9298L44.416 38.5156V43.344H46.416ZM48.432 45.36V47.36H53.2604L49.8462 43.9458L48.432 45.36ZM31.968 45.36H29.968V47.36H31.968V45.36ZM31.968 41.44V39.44H29.968V41.44H31.968ZM50.896 41.44H52.896V39.44H50.896V41.44ZM49.44 52.472L51.2799 53.2562L51.2844 53.2455L49.44 52.472ZM39.36 62.328L40.0922 64.1891L40.1001 64.186L40.1079 64.1829L39.36 62.328ZM31.968 61.672C29.2596 61.672 26.8219 61.1931 24.6291 60.2628L23.0669 63.9452C25.8021 65.1055 28.7778 65.672 31.968 65.672V61.672ZM24.6525 60.273C22.4235 59.2935 20.4946 57.9499 18.8502 56.2383L15.9658 59.0097C17.98 61.1061 20.3445 62.7492 23.0435 63.935L24.6525 60.273ZM18.8776 56.2674C17.2668 54.5224 15.9967 52.4646 15.074 50.0723L11.342 51.5117C12.4353 54.3461 13.9652 56.8429 15.9384 58.9806L18.8776 56.2674ZM15.074 50.0723C14.1645 47.7144 13.696 45.0872 13.696 42.168H9.696C9.696 45.5208 10.2355 48.6429 11.342 51.5117L15.074 50.0723ZM13.696 42.168C13.696 39.2488 14.1645 36.6216 15.074 34.2637L11.342 32.8243C10.2355 35.693 9.696 38.8152 9.696 42.168H13.696ZM15.074 34.2637C15.9967 31.8714 17.2668 29.8136 18.8776 28.0686L15.9384 25.3554C13.9652 27.4931 12.4353 29.9899 11.342 32.8243L15.074 34.2637ZM18.8636 28.0836C20.5023 26.3445 22.4191 25.0107 24.6291 24.0732L23.0669 20.3908C20.3489 21.5439 17.9723 23.1968 15.9524 25.3404L18.8636 28.0836ZM24.6525 24.063C26.8395 23.1021 29.2689 22.608 31.968 22.608V18.608C28.7684 18.608 25.7845 19.1966 23.0435 20.401L24.6525 24.063ZM31.968 22.608C34.566 22.608 36.8183 23.0686 38.7633 23.9438L40.4047 20.2962C37.8697 19.1554 35.0447 18.608 31.968 18.608V22.608ZM38.7745 23.9489C40.8412 24.8636 42.52 26.0268 43.8485 27.4201L46.7435 24.6598C45.0107 22.8426 42.8815 21.3924 40.3935 20.2911L38.7745 23.9489ZM43.8818 27.4542C45.2866 28.859 46.2332 30.2898 46.7883 31.7393L50.5237 30.3087C49.7348 28.2489 48.4414 26.357 46.7102 24.6258L43.8818 27.4542ZM47.7816 29.2253L43.7496 31.1853L45.4984 34.7827L49.5304 32.8227L47.7816 29.2253ZM46.4734 32.2225C45.2859 29.3387 43.4347 27.0205 40.924 25.3323L38.692 28.6517C40.512 29.8755 41.8714 31.552 42.7746 33.7455L46.4734 32.2225ZM40.924 25.3323C38.3748 23.6182 35.3564 22.808 31.968 22.808V26.808C34.7022 26.808 36.9106 27.4538 38.692 28.6517L40.924 25.3323ZM31.968 22.808C28.5752 22.808 25.4833 23.6193 22.7513 25.2841L24.8327 28.6999C26.8794 27.4527 29.2381 26.808 31.968 26.808V22.808ZM22.7513 25.2841C20.0316 26.9414 17.9169 29.2579 16.4134 32.1813L19.9706 34.0107C21.1551 31.7074 22.7738 29.9546 24.8327 28.6999L22.7513 25.2841ZM16.4188 32.1709C14.8994 35.0831 14.176 38.4363 14.176 42.168H18.176C18.176 38.9557 18.7966 36.2609 19.9652 34.0211L16.4188 32.1709ZM14.176 42.168C14.176 45.8671 14.9012 49.2142 16.4134 52.1547L19.9706 50.3253C18.7948 48.0391 18.176 45.3382 18.176 42.168H14.176ZM16.4134 52.1547C17.9169 55.0781 20.0316 57.3946 22.7513 59.0519L24.8327 55.6361C22.7738 54.3814 21.1551 52.6286 19.9706 50.3253L16.4134 52.1547ZM22.7709 59.0637C25.5001 60.6841 28.5849 61.472 31.968 61.472V57.472C29.2284 57.472 26.8626 56.8412 24.8131 55.6243L22.7709 59.0637ZM31.968 61.472C34.996 61.472 37.7796 60.8053 40.2702 59.4312L38.3378 55.9288C36.4978 56.9441 34.3907 57.472 31.968 57.472V61.472ZM40.2575 59.4381C42.7546 58.0837 44.7533 56.2211 46.2132 53.8596L42.8108 51.7564C41.732 53.5015 40.2588 54.8869 38.3505 55.9219L40.2575 59.4381ZM46.2216 53.846C47.6994 51.4119 48.416 48.6566 48.416 45.64H44.416C44.416 47.9994 43.8633 50.0228 42.8024 51.77L46.2216 53.846ZM48.416 45.64V43.344H44.416V45.64H48.416ZM45.0018 44.7582L47.0178 46.7742L49.8462 43.9458L47.8302 41.9298L45.0018 44.7582ZM48.432 43.36H31.968V47.36H48.432V43.36ZM33.968 45.36V41.44H29.968V45.36H33.968ZM31.968 43.44H50.896V39.44H31.968V43.44ZM48.896 41.44V44.912H52.896V41.44H48.896ZM48.896 44.912C48.896 47.3947 48.455 49.6491 47.5956 51.6985L51.2844 53.2455C52.3663 50.6655 52.896 47.8799 52.896 44.912H48.896ZM47.6002 51.6878C46.7295 53.7306 45.5329 55.488 44.0094 56.9783L46.8066 59.8377C48.7178 57.968 50.2092 55.7681 51.2798 53.2562L47.6002 51.6878ZM44.0094 56.9783C42.4863 58.4683 40.6937 59.6337 38.6121 60.4731L40.1079 64.1829C42.6556 63.1556 44.895 61.7077 46.8066 59.8377L44.0094 56.9783ZM38.6278 60.4669C36.6024 61.2637 34.389 61.672 31.968 61.672V65.672C34.8483 65.672 37.563 65.1843 40.0922 64.1891L38.6278 60.4669Z" fill="#110F5E" mask="url(#path-3-outside-1_285_30)"/>
</svg>
